# xmcd CD database file
#
# Track frame offsets:
#	150
#	43427
#	71173
#	113920
#	139464
#	167568
#	199684
#	220941
#	254489
#	299815
#
# Disc length: 4374 seconds
#
# Revision: 0
# Processed by: cddbd v1.5.1PL0 Copyright (c) Steve Scherf et al.
# Submitted via: CDex 1.50
#
DISCID=af11140a
DTITLE=Andrew Hill - Mosaic Select 16 Disc 3
DYEAR=1900
DGENRE=Jazz
TTITLE0=For Blue People Only
TTITLE1=Enamorado
TTITLE2=Mother's Tale
TTITLE3=Oriba (First Version)
TTITLE4=Oriba (2nd version)
TTITLE5=Awake
TTITLE6=Now
TTITLE7=I
TTITLE8=Yomo
TTITLE9=Prevue
EXTD=
EXTT0=
EXTT1=
EXTT2=
EXTT3=
EXTT4=
EXTT5=
EXTT6=
EXTT7=
EXTT8=
EXTT9=
PLAYORDER=
